<?xml version="1.0" encoding="UTF-8" standalone="no"?>
<!-- Created with Inkscape (http://www.inkscape.org/) -->

<svg
   width="548"
   height="548"
   viewBox="0 0 144.99167 144.99167"
   version="1.1"
   id="svg1"
   xml:space="preserve"
   sodipodi:docname="logo.svg"
   inkscape:version="1.3.2 (091e20e, 2023-11-25, custom)"
   inkscape:export-filename="logoWhatsapp.png"
   inkscape:export-xdpi="96"
   inkscape:export-ydpi="96"
   xmlns:inkscape="http://www.inkscape.org/namespaces/inkscape"
   xmlns:sodipodi="http://sodipodi.sourceforge.net/DTD/sodipodi-0.dtd"
   xmlns="http://www.w3.org/2000/svg"
   xmlns:svg="http://www.w3.org/2000/svg"><sodipodi:namedview
     id="namedview1"
     pagecolor="#ffffff"
     bordercolor="#000000"
     borderopacity="0.25"
     inkscape:showpageshadow="2"
     inkscape:pageopacity="0.0"
     inkscape:pagecheckerboard="0"
     inkscape:deskcolor="#d1d1d1"
     inkscape:zoom="0.67630269"
     inkscape:cx="116.8116"
     inkscape:cy="269.84959"
     inkscape:window-width="1440"
     inkscape:window-height="837"
     inkscape:window-x="-8"
     inkscape:window-y="-8"
     inkscape:window-maximized="1"
     inkscape:current-layer="layer1" /><defs
     id="defs1" /><g
     id="layer1"
     transform="translate(-729.27339,-207.49168)"><path
       id="path19"
       style="opacity:1;fill:#000000;stroke:#000000;stroke-width:2.45023;stroke-linecap:round;stroke-linejoin:round;paint-order:stroke fill markers"
       d="m 806.5715,271.06275 a 1.6298663,1.6298663 0 0 1 -1.6299,1.62986 1.6298663,1.6298663 0 0 1 -1.62988,-1.62986 1.6298663,1.6298663 0 0 1 1.62988,-1.62988 1.6298663,1.6298663 0 0 1 1.6299,1.62988 z m -30.23883,30.0471 0.11013,-21.74478 0.94144,-5.56646 2.7581,-6.06784 5.27976,-5.35857 6.26483,-3.27028 6.61945,-0.94566 5.27978,0.6304 3.86126,1.57608 -6.02834,0.74862 -3.62493,2.36408 -2.63995,4.05836 -0.55156,4.72815 1.49725,4.25535 3.50668,3.82193 4.13722,1.37902 3.70363,1.26086 3.23099,3.78253 0.98497,5.55558 -1.77305,4.76757 -3.86126,3.54614 -5.87085,1.14262 h -8.74711 l -10.24434,-0.0788 -4.64936,-0.0788 z m 40.77686,-33.01534 2.3578,6.8024 6.77477,0.28063 z m -2.17477,-2.4908 a 0.6229794,0.6229794 0 0 0 -0.41209,0.23908 0.6229794,0.6229794 0 0 0 0.11778,0.87374 l 10.72892,8.1803 h -5.90204 a 0.6229794,0.6229794 0 0 0 -0.62363,0.62359 0.6229794,0.6229794 0 0 0 0.62363,0.62266 h 7.74696 a 0.62304169,0.62304169 0 0 0 0.37719,-1.1184 l -12.1959,-9.29962 a 0.6229794,0.6229794 0 0 0 -0.46082,-0.12151 z m -38.60207,35.50618 a 0.6229794,0.6229794 0 0 0 -0.62268,0.62265 0.6229794,0.6229794 0 0 0 0.62268,0.62359 H 798.186 a 0.6229794,0.6229794 0 0 0 0.62269,-0.62359 0.6229794,0.6229794 0 0 0 -0.62269,-0.62265 z m 0.11013,-21.74482 a 0.6229794,0.6229794 0 0 0 -0.62544,0.61991 l -0.1077,21.74478 a 0.6229794,0.6229794 0 0 0 0.61991,0.62637 0.6229794,0.6229794 0 0 0 0.62544,-0.61991 l 0.1077,-21.74573 a 0.6229794,0.6229794 0 0 0 -0.61991,-0.62542 z m 21.74295,-21.74571 c -12.34618,0 -22.36839,10.02217 -22.36839,22.3684 a 0.6229794,0.6229794 0 0 0 0.6227,0.62266 0.6229794,0.6229794 0 0 0 0.62265,-0.62266 c 0,-11.67288 9.45024,-21.12216 21.12304,-21.12216 2.2662,2e-5 4.40644,0.44982 6.45215,1.10925 -2.19213,0.0935 -4.35458,0.80798 -6.18904,2.17335 -3.57225,2.65874 -5.2228,7.19223 -4.19689,11.52544 1.01277,4.2775 4.44802,7.54812 8.75426,8.37708 a 0.6229794,0.6229794 0 0 0 0.0834,0.0515 c 4.57514,0.74682 7.90271,4.72608 7.82881,9.36125 -0.0573,3.58983 -2.15256,6.70171 -5.22507,8.21065 -0.93433,0.35638 -1.88884,0.67087 -2.88158,0.89308 -0.009,9.3e-4 -0.0112,0.002 -0.0168,0.004 a 0.6229794,0.6229794 0 0 0 -0.009,0.002 c -1.48607,0.33092 -3.01789,0.53621 -4.60424,0.53621 a 0.6229794,0.6229794 0 0 0 -0.62361,0.62267 0.6229794,0.6229794 0 0 0 0.62361,0.62361 c 1.69368,0 3.32876,-0.22497 4.91513,-0.5822 1.08305,-0.15718 2.09792,-0.49246 3.04352,-0.94643 8.40688,-3.21777 14.40886,-11.30657 14.40886,-20.83976 0,-7.62878 -3.8408,-14.35256 -9.67763,-18.39048 -2e-4,-1.1e-4 1.7e-4,-9.3e-4 0,-9.3e-4 a 0.6229794,0.6229794 0 0 0 -0.18237,-0.15997 c -0.0455,-0.0254 -0.0946,-0.0424 -0.14074,-0.0681 -3.545,-2.36052 -7.79215,-3.74893 -12.36703,-3.74893 z m 6.35092,3.58333 c 1.88148,-0.10938 3.79236,0.32252 5.49827,1.29872 5.59588,3.7977 9.27294,10.20798 9.27294,17.48635 0,7.15245 -3.57018,13.44328 -9.00345,17.26374 1.1323,-1.65999 1.82667,-3.63461 1.86065,-5.76776 0.0825,-5.15613 -3.58091,-9.5946 -8.62357,-10.54589 a 0.6229794,0.6229794 0 0 0 -0.15382,-0.0726 c -3.89868,-0.6889 -7.01157,-3.62688 -7.92369,-7.47943 -0.91206,-3.85256 0.55277,-7.87398 3.72868,-10.23779 1.58802,-1.1819 3.45007,-1.83507 5.3438,-1.94526 z m 0.32651,5.95726 c -2.1696,0 -3.94115,1.77242 -3.94115,3.94205 0,2.16964 1.77155,3.94207 3.94115,3.94207 2.1696,0 3.94203,-1.77243 3.94203,-3.94207 0,-2.16963 -1.77243,-3.94205 -3.94203,-3.94205 z m 0,1.24625 c 1.49626,0 2.69581,1.19956 2.69581,2.6958 0,1.49627 -1.19955,2.69581 -2.69581,2.69581 -1.49624,0 -2.69579,-1.19956 -2.69579,-2.69581 0,-1.49624 1.19955,-2.6958 2.69579,-2.6958 z m 12.24609,-0.31169 2.73775,7.22144 h 6.4916 z" /></g></svg>
